<svg width="24" height="24" viewBox="0 0 24 24" fill="none" xmlns="http://www.w3.org/2000/svg">
<path d="M12.0001 4.85999C8.82676 4.85999 6.84343 6.44665 6.0501 9.61999C7.2401 8.03332 8.62843 7.43832 10.2151 7.83499C11.1201 8.06099 11.7671 8.71798 12.4831 9.44498C13.6511 10.63 15.0001 12 17.9501 12C21.1234 12 23.1068 10.4133 23.9001 7.23998C22.7101 8.82665 21.3218 9.42165 19.7351 9.02498C18.8291 8.79898 18.1831 8.14199 17.4651 7.41499C16.3001 6.22999 14.9501 4.85999 12.0001 4.85999ZM6.0501 12C2.87676 12 0.893431 13.5867 0.100098 16.76C1.2901 15.1733 2.67843 14.5783 4.2651 14.975C5.1701 15.201 5.8171 15.858 6.5341 16.585C7.7001 17.77 9.0501 19.14 12.0001 19.14C15.1734 19.14 17.1568 17.5533 17.9501 14.38C16.7601 15.9667 15.3718 16.5617 13.7851 16.165C12.8791 15.939 12.2331 15.282 11.5151 14.555C10.3501 13.37 9.0001 12 6.0501 12Z" fill="black"/>
</svg>
